<svg xmlns="http://www.w3.org/2000/svg" viewBox="0 0 1520 1000" width="1520" height="1000" font-family="Segoe UI, Arial, sans-serif">
<rect width="1520" height="1000" fill="#ffffff"/>
<text x="40" y="42" font-size="24" text-anchor="start" font-weight="bold" fill="#222">Sistema para Casa — Diagrama pictórico de conexión (Proteus 8.13)</text>
<text x="40" y="66" font-size="13" text-anchor="start" font-weight="normal" fill="#555">Arduino Nano v3 · RTC DS1307 · LCD 20x4 por I2C (PCF8574A) · Teclado 4x4 · LDR · Riego · Luces · Motor de cortina (L293D) · Display 7 seg</text>
<rect x="560" y="120" width="280" height="850" rx="14" fill="#1b7a96" stroke="#0d3c4d" stroke-width="3"/>
<text x="700" y="545" font-size="22" text-anchor="middle" font-weight="bold" fill="#fff">ARDUINO NANO v3</text>
<text x="700" y="572" font-size="12" text-anchor="middle" font-weight="normal" fill="#d8f0f7">ATmega328P</text>
<circle cx="560" cy="160" r="5" fill="#f2c744"/>
<text x="572" y="164" font-size="12" text-anchor="start" font-weight="bold" fill="#fff">D2</text>
<circle cx="560" cy="190" r="5" fill="#f2c744"/>
<text x="572" y="194" font-size="12" text-anchor="start" font-weight="bold" fill="#fff">D4</text>
<circle cx="560" cy="220" r="5" fill="#f2c744"/>
<text x="572" y="224" font-size="12" text-anchor="start" font-weight="bold" fill="#fff">D5</text>
<circle cx="560" cy="250" r="5" fill="#f2c744"/>
<text x="572" y="254" font-size="12" text-anchor="start" font-weight="bold" fill="#fff">D6</text>
<circle cx="560" cy="280" r="5" fill="#f2c744"/>
<text x="572" y="284" font-size="12" text-anchor="start" font-weight="bold" fill="#fff">D11</text>
<circle cx="560" cy="310" r="5" fill="#f2c744"/>
<text x="572" y="314" font-size="12" text-anchor="start" font-weight="bold" fill="#fff">D12</text>
<circle cx="560" cy="340" r="5" fill="#f2c744"/>
<text x="572" y="344" font-size="12" text-anchor="start" font-weight="bold" fill="#fff">A2</text>
<circle cx="560" cy="370" r="5" fill="#f2c744"/>
<text x="572" y="374" font-size="12" text-anchor="start" font-weight="bold" fill="#fff">A1</text>
<circle cx="560" cy="620" r="5" fill="#f2c744"/>
<text x="572" y="624" font-size="12" text-anchor="start" font-weight="bold" fill="#fff">D7</text>
<circle cx="560" cy="690" r="5" fill="#f2c744"/>
<text x="572" y="694" font-size="12" text-anchor="start" font-weight="bold" fill="#fff">D8</text>
<circle cx="560" cy="760" r="5" fill="#f2c744"/>
<text x="572" y="764" font-size="12" text-anchor="start" font-weight="bold" fill="#fff">D9</text>
<circle cx="560" cy="850" r="5" fill="#f2c744"/>
<text x="572" y="854" font-size="12" text-anchor="start" font-weight="bold" fill="#fff">D10</text>
<circle cx="560" cy="920" r="5" fill="#f2c744"/>
<text x="572" y="924" font-size="12" text-anchor="start" font-weight="bold" fill="#fff">D1 / TX</text>
<circle cx="840" cy="170" r="5" fill="#f2c744"/>
<text x="828" y="174" font-size="12" text-anchor="end" font-weight="bold" fill="#fff">A0</text>
<circle cx="840" cy="300" r="5" fill="#f2c744"/>
<text x="828" y="304" font-size="12" text-anchor="end" font-weight="bold" fill="#fff">A4 / SDA</text>
<circle cx="840" cy="340" r="5" fill="#f2c744"/>
<text x="828" y="344" font-size="12" text-anchor="end" font-weight="bold" fill="#fff">A5 / SCL</text>
<circle cx="840" cy="460" r="5" fill="#f2c744"/>
<text x="828" y="464" font-size="12" text-anchor="end" font-weight="bold" fill="#fff">5V</text>
<circle cx="840" cy="520" r="5" fill="#f2c744"/>
<text x="828" y="524" font-size="12" text-anchor="end" font-weight="bold" fill="#fff">GND</text>
<rect x="60" y="130" width="270" height="270" rx="8" fill="#d9dde3" stroke="#222" stroke-width="2"/>
<text x="75" y="152" font-size="11" text-anchor="start" font-weight="bold" fill="#222">Teclado 4x4</text>
<rect x="78" y="168" width="40" height="44" rx="5" fill="#f4f4f4" stroke="#555" stroke-width="1.5"/>
<text x="98" y="190" font-size="13" text-anchor="middle" font-weight="bold" fill="#222">1</text>
<rect x="122" y="168" width="40" height="44" rx="5" fill="#f4f4f4" stroke="#555" stroke-width="1.5"/>
<text x="142" y="190" font-size="13" text-anchor="middle" font-weight="bold" fill="#222">2</text>
<rect x="166" y="168" width="40" height="44" rx="5" fill="#f4f4f4" stroke="#555" stroke-width="1.5"/>
<text x="186" y="190" font-size="13" text-anchor="middle" font-weight="bold" fill="#222">3</text>
<rect x="210" y="168" width="40" height="44" rx="5" fill="#f4f4f4" stroke="#555" stroke-width="1.5"/>
<text x="230" y="190" font-size="10" text-anchor="middle" font-weight="bold" fill="#222">F0</text>
<text x="230" y="205" font-size="8" text-anchor="middle" font-weight="normal" fill="#c0392b">menú</text>
<rect x="78" y="220" width="40" height="44" rx="5" fill="#f4f4f4" stroke="#555" stroke-width="1.5"/>
<text x="98" y="242" font-size="13" text-anchor="middle" font-weight="bold" fill="#222">4</text>
<rect x="122" y="220" width="40" height="44" rx="5" fill="#f4f4f4" stroke="#555" stroke-width="1.5"/>
<text x="142" y="242" font-size="13" text-anchor="middle" font-weight="bold" fill="#222">5</text>
<rect x="166" y="220" width="40" height="44" rx="5" fill="#f4f4f4" stroke="#555" stroke-width="1.5"/>
<text x="186" y="242" font-size="13" text-anchor="middle" font-weight="bold" fill="#222">6</text>
<rect x="210" y="220" width="40" height="44" rx="5" fill="#f4f4f4" stroke="#555" stroke-width="1.5"/>
<text x="230" y="242" font-size="10" text-anchor="middle" font-weight="bold" fill="#222">F1</text>
<text x="230" y="257" font-size="8" text-anchor="middle" font-weight="normal" fill="#c0392b">hora</text>
<rect x="78" y="272" width="40" height="44" rx="5" fill="#f4f4f4" stroke="#555" stroke-width="1.5"/>
<text x="98" y="294" font-size="13" text-anchor="middle" font-weight="bold" fill="#222">7</text>
<rect x="122" y="272" width="40" height="44" rx="5" fill="#f4f4f4" stroke="#555" stroke-width="1.5"/>
<text x="142" y="294" font-size="13" text-anchor="middle" font-weight="bold" fill="#222">8</text>
<rect x="166" y="272" width="40" height="44" rx="5" fill="#f4f4f4" stroke="#555" stroke-width="1.5"/>
<text x="186" y="294" font-size="13" text-anchor="middle" font-weight="bold" fill="#222">9</text>
<rect x="210" y="272" width="40" height="44" rx="5" fill="#f4f4f4" stroke="#555" stroke-width="1.5"/>
<text x="230" y="294" font-size="10" text-anchor="middle" font-weight="bold" fill="#222">F2</text>
<text x="230" y="309" font-size="8" text-anchor="middle" font-weight="normal" fill="#c0392b">velocidad</text>
<rect x="78" y="324" width="40" height="44" rx="5" fill="#f4f4f4" stroke="#555" stroke-width="1.5"/>
<text x="98" y="346" font-size="10" text-anchor="middle" font-weight="bold" fill="#222">ON/C</text>
<text x="98" y="361" font-size="8" text-anchor="middle" font-weight="normal" fill="#c0392b">borrar</text>
<rect x="122" y="324" width="40" height="44" rx="5" fill="#f4f4f4" stroke="#555" stroke-width="1.5"/>
<text x="142" y="346" font-size="13" text-anchor="middle" font-weight="bold" fill="#222">0</text>
<rect x="166" y="324" width="40" height="44" rx="5" fill="#f4f4f4" stroke="#555" stroke-width="1.5"/>
<text x="186" y="346" font-size="10" text-anchor="middle" font-weight="bold" fill="#222">ok</text>
<text x="186" y="361" font-size="8" text-anchor="middle" font-weight="normal" fill="#c0392b">aceptar</text>
<rect x="210" y="324" width="40" height="44" rx="5" fill="#f4f4f4" stroke="#555" stroke-width="1.5"/>
<text x="230" y="346" font-size="10" text-anchor="middle" font-weight="bold" fill="#222">F3</text>
<text x="230" y="361" font-size="8" text-anchor="middle" font-weight="normal" fill="#c0392b">luces</text>
<text x="322" y="164" font-size="11" text-anchor="end" font-weight="bold" fill="#222">R1</text>
<polyline points="330,160 560,160" fill="none" stroke="#e8644f" stroke-width="3" stroke-linejoin="round"/>
<circle cx="330" cy="160" r="4" fill="#e8644f"/>
<text x="322" y="194" font-size="11" text-anchor="end" font-weight="bold" fill="#222">R2</text>
<polyline points="330,190 560,190" fill="none" stroke="#f0a05a" stroke-width="3" stroke-linejoin="round"/>
<circle cx="330" cy="190" r="4" fill="#f0a05a"/>
<text x="322" y="224" font-size="11" text-anchor="end" font-weight="bold" fill="#222">R3</text>
<polyline points="330,220 560,220" fill="none" stroke="#f0cc66" stroke-width="3" stroke-linejoin="round"/>
<circle cx="330" cy="220" r="4" fill="#f0cc66"/>
<text x="322" y="254" font-size="11" text-anchor="end" font-weight="bold" fill="#222">R4</text>
<polyline points="330,250 560,250" fill="none" stroke="#2a9d8f" stroke-width="3" stroke-linejoin="round"/>
<circle cx="330" cy="250" r="4" fill="#2a9d8f"/>
<text x="322" y="284" font-size="11" text-anchor="end" font-weight="bold" fill="#222">C1</text>
<polyline points="330,280 560,280" fill="none" stroke="#7b4fb8" stroke-width="3" stroke-linejoin="round"/>
<circle cx="330" cy="280" r="4" fill="#7b4fb8"/>
<text x="322" y="314" font-size="11" text-anchor="end" font-weight="bold" fill="#222">C2</text>
<polyline points="330,310 560,310" fill="none" stroke="#2b8fd0" stroke-width="3" stroke-linejoin="round"/>
<circle cx="330" cy="310" r="4" fill="#2b8fd0"/>
<text x="322" y="344" font-size="11" text-anchor="end" font-weight="bold" fill="#222">C3</text>
<polyline points="330,340 560,340" fill="none" stroke="#8cc63f" stroke-width="3" stroke-linejoin="round"/>
<circle cx="330" cy="340" r="4" fill="#8cc63f"/>
<text x="322" y="374" font-size="11" text-anchor="end" font-weight="bold" fill="#222">C4</text>
<polyline points="330,370 560,370" fill="none" stroke="#f26b6b" stroke-width="3" stroke-linejoin="round"/>
<circle cx="330" cy="370" r="4" fill="#f26b6b"/>
<text x="1080" y="105" font-size="12" text-anchor="middle" font-weight="bold" fill="#c0392b">+5V</text>
<polyline points="1080,112 1080,120" fill="none" stroke="#c0392b" stroke-width="2" stroke-linejoin="round"/>
<rect x="1067" y="120" width="26" height="34" rx="5" fill="#c9a45c" stroke="#222" stroke-width="2"/>
<path d="M1072,128 l4,5 l4,-5 l4,5 l4,-5" fill="none" stroke="#222" stroke-width="1.5"/>
<path d="M1072,142 l4,5 l4,-5 l4,5 l4,-5" fill="none" stroke="#222" stroke-width="1.5"/>
<polyline points="1048,110 1062,120" fill="none" stroke="#f2a900" stroke-width="2" stroke-linejoin="round"/>
<polygon points="1062,120 1056,119 1061,114" fill="#f2a900"/>
<polyline points="1048,122 1062,132" fill="none" stroke="#f2a900" stroke-width="2" stroke-linejoin="round"/>
<polygon points="1062,132 1056,131 1061,126" fill="#f2a900"/>
<polyline points="1080,154 1080,170" fill="none" stroke="#222" stroke-width="2" stroke-linejoin="round"/>
<polyline points="840,170 1080,170" fill="none" stroke="#7b3fe4" stroke-width="3" stroke-linejoin="round"/>
<circle cx="1080" cy="170" r="4" fill="#222"/>
<polyline points="1080,172 1080,186" fill="none" stroke="#222" stroke-width="2" stroke-linejoin="round"/>
<rect x="1073" y="186" width="14" height="38" rx="3" fill="#e9d8a6" stroke="#222" stroke-width="1.5"/>
<rect x="1073" y="196" width="14" height="4" fill="#b5651d"/>
<rect x="1073" y="205" width="14" height="4" fill="#b5651d"/>
<rect x="1073" y="214" width="14" height="4" fill="#b5651d"/>
<polyline points="1080,224 1080,238" fill="none" stroke="#222" stroke-width="2" stroke-linejoin="round"/>
<text x="1094" y="210" font-size="11" text-anchor="start" font-weight="normal" fill="#222">10 kΩ</text>
<polyline points="1080,240 1080,248" fill="none" stroke="#222" stroke-width="2" stroke-linejoin="round"/>
<polyline points="1066,248 1094,248" fill="none" stroke="#222" stroke-width="2" stroke-linejoin="round"/>
<polyline points="1071,253 1089,253" fill="none" stroke="#222" stroke-width="2" stroke-linejoin="round"/>
<polyline points="1076,258 1084,258" fill="none" stroke="#222" stroke-width="2" stroke-linejoin="round"/>
<text x="1120" y="140" font-size="12" text-anchor="start" font-weight="bold" fill="#222">LDR (fotorresistencia)</text>
<text x="1120" y="156" font-size="10" text-anchor="start" font-weight="normal" fill="#555">más luz = más voltaje en A0</text>
<polyline points="840,300 1450,300" fill="none" stroke="#2255cc" stroke-width="3" stroke-linejoin="round"/>
<polyline points="840,340 1450,340" fill="none" stroke="#22aa55" stroke-width="3" stroke-linejoin="round"/>
<text x="925" y="292" font-size="11" text-anchor="start" font-weight="bold" fill="#2255cc">SDA</text>
<text x="925" y="332" font-size="11" text-anchor="start" font-weight="bold" fill="#22aa55">SCL</text>
<text x="900" y="228" font-size="11" text-anchor="middle" font-weight="bold" fill="#c0392b">+5V</text>
<polyline points="900,230 900,244" fill="none" stroke="#222" stroke-width="2" stroke-linejoin="round"/>
<rect x="893" y="244" width="14" height="38" rx="3" fill="#e9d8a6" stroke="#222" stroke-width="1.5"/>
<rect x="893" y="254" width="14" height="4" fill="#b5651d"/>
<rect x="893" y="263" width="14" height="4" fill="#b5651d"/>
<rect x="893" y="272" width="14" height="4" fill="#b5651d"/>
<polyline points="900,282 900,296" fill="none" stroke="#222" stroke-width="2" stroke-linejoin="round"/>
<text x="914" y="268" font-size="11" text-anchor="start" font-weight="normal" fill="#222">4.7 kΩ</text>
<circle cx="900" cy="300" r="4" fill="#222"/>
<polyline points="900,340 900,356" fill="none" stroke="#222" stroke-width="2" stroke-linejoin="round"/>
<rect x="893" y="356" width="14" height="38" rx="3" fill="#e9d8a6" stroke="#222" stroke-width="1.5"/>
<rect x="893" y="366" width="14" height="4" fill="#b5651d"/>
<rect x="893" y="375" width="14" height="4" fill="#b5651d"/>
<rect x="893" y="384" width="14" height="4" fill="#b5651d"/>
<text x="914" y="380" font-size="11" text-anchor="start" font-weight="normal" fill="#222">4.7 kΩ</text>
<polyline points="900,394 900,408" fill="none" stroke="#222" stroke-width="2" stroke-linejoin="round"/>
<text x="900" y="420" font-size="11" text-anchor="middle" font-weight="bold" fill="#c0392b">+5V</text>
<circle cx="900" cy="340" r="4" fill="#222"/>
<rect x="980" y="420" width="150" height="140" rx="6" fill="#2c3e50" stroke="#111" stroke-width="2"/>
<text x="1055" y="543" font-size="12" text-anchor="middle" font-weight="bold" fill="#fff">DS1307 (RTC)</text>
<text x="1030" y="435" font-size="9" text-anchor="middle" font-weight="normal" fill="#fff">SDA</text>
<text x="1060" y="435" font-size="9" text-anchor="middle" font-weight="normal" fill="#fff">SCL</text>
<polyline points="1030,300 1030,420" fill="none" stroke="#2255cc" stroke-width="3" stroke-linejoin="round"/>
<circle cx="1030" cy="300" r="5" fill="#2255cc"/>
<polyline points="1060,340 1060,420" fill="none" stroke="#22aa55" stroke-width="3" stroke-linejoin="round"/>
<circle cx="1060" cy="340" r="5" fill="#22aa55"/>
<text x="993" y="474" font-size="9" text-anchor="start" font-weight="normal" fill="#fff">X1</text>
<text x="993" y="504" font-size="9" text-anchor="start" font-weight="normal" fill="#fff">X2</text>
<rect x="928" y="478" width="16" height="16" rx="3" fill="#bbb" stroke="#222" stroke-width="1.5"/>
<polyline points="944,486 980,470" fill="none" stroke="#222" stroke-width="2" stroke-linejoin="round"/>
<polyline points="944,486 980,500" fill="none" stroke="#222" stroke-width="2" stroke-linejoin="round"/>
<text x="936" y="516" font-size="9" text-anchor="middle" font-weight="normal" fill="#555">32.768 kHz</text>
<polyline points="1130,470 1150,470" fill="none" stroke="#222" stroke-width="2" stroke-linejoin="round"/>
<text x="1122" y="474" font-size="9" text-anchor="end" font-weight="normal" fill="#fff">VCC</text>
<text x="1156" y="474" font-size="11" text-anchor="start" font-weight="bold" fill="#c0392b">+5V</text>
<polyline points="1130,500 1150,500" fill="none" stroke="#222" stroke-width="2" stroke-linejoin="round"/>
<text x="1122" y="504" font-size="9" text-anchor="end" font-weight="normal" fill="#fff">VBAT</text>
<text x="1156" y="504" font-size="11" text-anchor="start" font-weight="bold" fill="#c0392b">Pila 3V</text>
<polyline points="1130,530 1150,530" fill="none" stroke="#222" stroke-width="2" stroke-linejoin="round"/>
<text x="1122" y="534" font-size="9" text-anchor="end" font-weight="normal" fill="#fff">GND</text>
<text x="1156" y="534" font-size="11" text-anchor="start" font-weight="bold" fill="#222">GND</text>
<rect x="1260" y="420" width="160" height="140" rx="6" fill="#2c3e50" stroke="#111" stroke-width="2"/>
<text x="1340" y="539" font-size="13" text-anchor="middle" font-weight="bold" fill="#fff">PCF8574A</text>
<text x="1340" y="557" font-size="11" text-anchor="middle" font-weight="normal" fill="#e8e8e8">dirección 0x38</text>
<text x="1290" y="435" font-size="9" text-anchor="middle" font-weight="normal" fill="#fff">SDA</text>
<text x="1320" y="435" font-size="9" text-anchor="middle" font-weight="normal" fill="#fff">SCL</text>
<polyline points="1290,300 1290,420" fill="none" stroke="#2255cc" stroke-width="3" stroke-linejoin="round"/>
<circle cx="1290" cy="300" r="5" fill="#2255cc"/>
<polyline points="1320,340 1320,420" fill="none" stroke="#22aa55" stroke-width="3" stroke-linejoin="round"/>
<circle cx="1320" cy="340" r="5" fill="#22aa55"/>
<polyline points="1240,460 1260,460" fill="none" stroke="#222" stroke-width="2" stroke-linejoin="round"/>
<text x="1268" y="464" font-size="9" text-anchor="start" font-weight="normal" fill="#fff">A0</text>
<text x="1232" y="464" font-size="11" text-anchor="end" font-weight="bold" fill="#222">GND</text>
<polyline points="1240,490 1260,490" fill="none" stroke="#222" stroke-width="2" stroke-linejoin="round"/>
<text x="1268" y="494" font-size="9" text-anchor="start" font-weight="normal" fill="#fff">A1</text>
<text x="1232" y="494" font-size="11" text-anchor="end" font-weight="bold" fill="#222">GND</text>
<polyline points="1240,520 1260,520" fill="none" stroke="#222" stroke-width="2" stroke-linejoin="round"/>
<text x="1268" y="524" font-size="9" text-anchor="start" font-weight="normal" fill="#fff">A2</text>
<text x="1232" y="524" font-size="11" text-anchor="end" font-weight="bold" fill="#222">GND</text>
<polyline points="1420,460 1440,460" fill="none" stroke="#222" stroke-width="2" stroke-linejoin="round"/>
<text x="1412" y="464" font-size="9" text-anchor="end" font-weight="normal" fill="#fff">VCC</text>
<text x="1446" y="464" font-size="11" text-anchor="start" font-weight="bold" fill="#c0392b">+5V</text>
<polyline points="1420,490 1440,490" fill="none" stroke="#222" stroke-width="2" stroke-linejoin="round"/>
<text x="1412" y="494" font-size="9" text-anchor="end" font-weight="normal" fill="#fff">GND</text>
<text x="1446" y="494" font-size="11" text-anchor="start" font-weight="bold" fill="#222">GND</text>
<text x="1270" y="637" font-size="9" text-anchor="middle" font-weight="bold" fill="#fff">P0</text>
<polyline points="1270,560 1270,720" fill="none" stroke="#e8644f" stroke-width="3" stroke-linejoin="round"/>
<text x="1290" y="637" font-size="9" text-anchor="middle" font-weight="bold" fill="#fff">P1</text>
<polyline points="1290,560 1290,720" fill="none" stroke="#f0a05a" stroke-width="3" stroke-linejoin="round"/>
<text x="1310" y="637" font-size="9" text-anchor="middle" font-weight="bold" fill="#fff">P2</text>
<polyline points="1310,560 1310,720" fill="none" stroke="#f0cc66" stroke-width="3" stroke-linejoin="round"/>
<text x="1330" y="637" font-size="9" text-anchor="middle" font-weight="bold" fill="#fff">P3</text>
<text x="1330" y="672" font-size="14" text-anchor="middle" font-weight="bold" fill="#c0392b">×</text>
<text x="1330" y="686" font-size="9" text-anchor="middle" font-weight="normal" fill="#555">NC</text>
<text x="1350" y="637" font-size="9" text-anchor="middle" font-weight="bold" fill="#fff">P4</text>
<polyline points="1350,560 1350,720" fill="none" stroke="#2a9d8f" stroke-width="3" stroke-linejoin="round"/>
<text x="1370" y="637" font-size="9" text-anchor="middle" font-weight="bold" fill="#fff">P5</text>
<polyline points="1370,560 1370,720" fill="none" stroke="#2b8fd0" stroke-width="3" stroke-linejoin="round"/>
<text x="1390" y="637" font-size="9" text-anchor="middle" font-weight="bold" fill="#fff">P6</text>
<polyline points="1390,560 1390,720" fill="none" stroke="#7b4fb8" stroke-width="3" stroke-linejoin="round"/>
<text x="1410" y="637" font-size="9" text-anchor="middle" font-weight="bold" fill="#fff">P7</text>
<polyline points="1410,560 1410,720" fill="none" stroke="#b0b5bb" stroke-width="3" stroke-linejoin="round"/>
<rect x="1240" y="720" width="190" height="170" rx="6" fill="#2e6b4a" stroke="#1b3d2a" stroke-width="2"/>
<rect x="1285" y="745" width="130" height="70" rx="3" fill="#b7d36b" stroke="#222" stroke-width="1.5"/>
<text x="1290" y="760" font-size="9" text-anchor="start" font-weight="normal" fill="#1b3d00">CASA x60   12:34:56</text>
<text x="1290" y="776" font-size="9" text-anchor="start" font-weight="normal" fill="#1b3d00">Luz: 45% Luces:ON  A</text>
<text x="1290" y="792" font-size="9" text-anchor="start" font-weight="normal" fill="#1b3d00">Cortina:ABIERTA</text>
<text x="1290" y="808" font-size="9" text-anchor="start" font-weight="normal" fill="#1b3d00">Riego:OFF Prox 18:00</text>
<text x="1335" y="848" font-size="12" text-anchor="middle" font-weight="bold" fill="#fff">LCD 20x4 (LM044L)</text>
<text x="1335" y="866" font-size="9" text-anchor="middle" font-weight="normal" fill="#e8e8e8">D0–D3 sin conectar</text>
<polyline points="1220,765 1240,765" fill="none" stroke="#222" stroke-width="2" stroke-linejoin="round"/>
<text x="1246" y="769" font-size="9" text-anchor="start" font-weight="normal" fill="#fff">VSS</text>
<text x="1214" y="769" font-size="11" text-anchor="end" font-weight="bold" fill="#222">GND</text>
<polyline points="1220,795 1240,795" fill="none" stroke="#222" stroke-width="2" stroke-linejoin="round"/>
<text x="1246" y="799" font-size="9" text-anchor="start" font-weight="normal" fill="#fff">VDD</text>
<text x="1214" y="799" font-size="11" text-anchor="end" font-weight="bold" fill="#c0392b">+5V</text>
<polyline points="1220,825 1240,825" fill="none" stroke="#222" stroke-width="2" stroke-linejoin="round"/>
<text x="1246" y="829" font-size="9" text-anchor="start" font-weight="normal" fill="#fff">VEE</text>
<text x="1214" y="829" font-size="11" text-anchor="end" font-weight="bold" fill="#222">GND</text>
<polyline points="840,460 870,460" fill="none" stroke="#d62828" stroke-width="3" stroke-linejoin="round"/>
<text x="878" y="464" font-size="11" text-anchor="start" font-weight="bold" fill="#c0392b">+5V</text>
<polyline points="840,520 870,520" fill="none" stroke="#222" stroke-width="3" stroke-linejoin="round"/>
<text x="878" y="524" font-size="11" text-anchor="start" font-weight="bold" fill="#222">GND</text>
<text x="60" y="586" font-size="12" text-anchor="start" font-weight="bold" fill="#222">Riego (bomba) → D7</text>
<text x="60" y="600" font-size="10" text-anchor="start" font-weight="normal" fill="#555">LED azul (o relé + bomba)</text>
<polyline points="330,620 560,620" fill="none" stroke="#3b82f6" stroke-width="3" stroke-linejoin="round"/>
<polyline points="260,620 280,620" fill="none" stroke="#222" stroke-width="2" stroke-linejoin="round"/>
<rect x="280" y="613" width="40" height="14" rx="3" fill="#e9d8a6" stroke="#222" stroke-width="1.5"/>
<rect x="290" y="613" width="4" height="14" fill="#b5651d"/>
<rect x="299" y="613" width="4" height="14" fill="#b5651d"/>
<rect x="308" y="613" width="4" height="14" fill="#b5651d"/>
<text x="300" y="608" font-size="11" text-anchor="middle" font-weight="normal" fill="#222">330 Ω</text>
<polyline points="260,620 240,620" fill="none" stroke="#222" stroke-width="2" stroke-linejoin="round"/>
<polygon points="210,608 210,632 240,620" fill="#3b82f6" stroke="#222" stroke-width="1.5"/>
<polyline points="210,608 210,632" fill="none" stroke="#222" stroke-width="2" stroke-linejoin="round"/>
<polyline points="210,620 180,620" fill="none" stroke="#222" stroke-width="2" stroke-linejoin="round"/>
<polyline points="180,620 180,632" fill="none" stroke="#222" stroke-width="2" stroke-linejoin="round"/>
<polyline points="180,632 180,640" fill="none" stroke="#222" stroke-width="2" stroke-linejoin="round"/>
<polyline points="166,640 194,640" fill="none" stroke="#222" stroke-width="2" stroke-linejoin="round"/>
<polyline points="171,645 189,645" fill="none" stroke="#222" stroke-width="2" stroke-linejoin="round"/>
<polyline points="176,650 184,650" fill="none" stroke="#222" stroke-width="2" stroke-linejoin="round"/>
<text x="60" y="656" font-size="12" text-anchor="start" font-weight="bold" fill="#222">Luces → D8</text>
<text x="60" y="670" font-size="10" text-anchor="start" font-weight="normal" fill="#555">LED amarillo</text>
<polyline points="330,690 560,690" fill="none" stroke="#f2c200" stroke-width="3" stroke-linejoin="round"/>
<polyline points="260,690 280,690" fill="none" stroke="#222" stroke-width="2" stroke-linejoin="round"/>
<rect x="280" y="683" width="40" height="14" rx="3" fill="#e9d8a6" stroke="#222" stroke-width="1.5"/>
<rect x="290" y="683" width="4" height="14" fill="#b5651d"/>
<rect x="299" y="683" width="4" height="14" fill="#b5651d"/>
<rect x="308" y="683" width="4" height="14" fill="#b5651d"/>
<text x="300" y="678" font-size="11" text-anchor="middle" font-weight="normal" fill="#222">330 Ω</text>
<polyline points="260,690 240,690" fill="none" stroke="#222" stroke-width="2" stroke-linejoin="round"/>
<polygon points="210,678 210,702 240,690" fill="#f2c200" stroke="#222" stroke-width="1.5"/>
<polyline points="210,678 210,702" fill="none" stroke="#222" stroke-width="2" stroke-linejoin="round"/>
<polyline points="210,690 180,690" fill="none" stroke="#222" stroke-width="2" stroke-linejoin="round"/>
<polyline points="180,690 180,702" fill="none" stroke="#222" stroke-width="2" stroke-linejoin="round"/>
<polyline points="180,702 180,710" fill="none" stroke="#222" stroke-width="2" stroke-linejoin="round"/>
<polyline points="166,710 194,710" fill="none" stroke="#222" stroke-width="2" stroke-linejoin="round"/>
<polyline points="171,715 189,715" fill="none" stroke="#222" stroke-width="2" stroke-linejoin="round"/>
<polyline points="176,720 184,720" fill="none" stroke="#222" stroke-width="2" stroke-linejoin="round"/>
<text x="60" y="750" font-size="12" text-anchor="start" font-weight="bold" fill="#222">Cortina → D9 / D10</text>
<rect x="300" y="740" width="170" height="150" rx="6" fill="#2c3e50" stroke="#111" stroke-width="2"/>
<text x="385" y="772" font-size="15" text-anchor="middle" font-weight="bold" fill="#fff">L293D</text>
<text x="385" y="790" font-size="10" text-anchor="middle" font-weight="normal" fill="#d0d0d0">puente H</text>
<polyline points="470,760 560,760" fill="none" stroke="#ff8c00" stroke-width="3" stroke-linejoin="round"/>
<text x="462" y="764" font-size="10" text-anchor="end" font-weight="normal" fill="#fff">IN1 (1A)</text>
<polyline points="470,850 560,850" fill="none" stroke="#a45cf0" stroke-width="3" stroke-linejoin="round"/>
<text x="462" y="854" font-size="10" text-anchor="end" font-weight="normal" fill="#fff">IN2 (2A)</text>
<text x="520" y="748" font-size="10" text-anchor="middle" font-weight="bold" fill="#ff8c00">abrir</text>
<text x="520" y="838" font-size="10" text-anchor="middle" font-weight="bold" fill="#a45cf0">cerrar</text>
<text x="308" y="764" font-size="10" text-anchor="start" font-weight="normal" fill="#fff">OUT1 (1Y)</text>
<text x="308" y="854" font-size="10" text-anchor="start" font-weight="normal" fill="#fff">OUT2 (2Y)</text>
<polyline points="300,760 225,760 225,775" fill="none" stroke="#8b5a2b" stroke-width="3" stroke-linejoin="round"/>
<polyline points="300,850 225,850 225,835" fill="none" stroke="#8b5a2b" stroke-width="3" stroke-linejoin="round"/>
<circle cx="225" cy="805" r="32" fill="#e5e7eb" stroke="#222" stroke-width="2"/>
<text x="225" y="812" font-size="22" text-anchor="middle" font-weight="bold" fill="#222">M</text>
<text x="150" y="800" font-size="11" text-anchor="end" font-weight="bold" fill="#222">Motor DC</text>
<text x="150" y="815" font-size="10" text-anchor="end" font-weight="normal" fill="#555">cortina</text>
<text x="385" y="806" font-size="9" text-anchor="middle" font-weight="normal" fill="#e8e8e8">EN1, VSS → +5V · VS → +12V</text>
<text x="385" y="820" font-size="9" text-anchor="middle" font-weight="normal" fill="#e8e8e8">GND (pines 4, 5, 12, 13)</text>
<text x="385" y="878" font-size="9" text-anchor="middle" font-weight="normal" fill="#bbb">VS (motor): fuente aparte, GND común</text>
<text x="60" y="925" font-size="12" text-anchor="start" font-weight="bold" fill="#222">TX →</text>
<rect x="100" y="900" width="230" height="42" rx="5" fill="#111827" stroke="#000" stroke-width="2"/>
<text x="215" y="925" font-size="11" text-anchor="middle" font-weight="normal" fill="#4cff4c">Virtual Terminal · RXD · 9600 baud</text>
<polyline points="330,920 560,920" fill="none" stroke="#b0b5bb" stroke-width="3" stroke-linejoin="round"/>
<rect x="880" y="930" width="600" height="56" rx="6" fill="#f5f6f8" stroke="#ccc" stroke-width="1.2"/>
<text x="895" y="951" font-size="11" text-anchor="start" font-weight="normal" fill="#444">Todos los puntos «+5V» se unen al pin 5V del Arduino y todos los «GND» al pin GND (masa común).</text>
<text x="895" y="970" font-size="11" text-anchor="start" font-weight="normal" fill="#444">Bus I2C: DS1307 (0x68) y PCF8574A (0x38) comparten SDA/SCL con un solo par de pull-ups de 4.7 kΩ.</text>
<rect x="60" y="415" width="270" height="140" rx="8" fill="#e5e7eb" stroke="#9ca3af" stroke-width="1.5"/>
<text x="72" y="436" font-size="12" text-anchor="start" font-weight="bold" fill="#222">Display 7 seg · tiempo de riego</text>
<rect x="72" y="446" width="112" height="38" rx="4" fill="#111" stroke="#000" stroke-width="2"/>
<text x="128" y="476" font-size="24" text-anchor="middle" font-weight="bold" font-family="Consolas, monospace" fill="#ff3b3b">00:00</text>
<text x="72" y="502" font-size="9" text-anchor="start" font-weight="normal" fill="#444">4 × 74HC595 + 4 × 7SEG</text>
<text x="72" y="516" font-size="9" text-anchor="start" font-weight="normal" fill="#444">MM:SS = tiempo que lleva regando</text>
<text x="72" y="530" font-size="9" text-anchor="start" font-weight="normal" fill="#444">SRCLK y RCLK a los cuatro 595; QH' de cada uno</text>
<text x="72" y="542" font-size="9" text-anchor="start" font-weight="normal" fill="#444">al SER del siguiente; OE a GND, SRCLR a +5V</text>
<text x="322" y="444" font-size="10" text-anchor="end" font-weight="bold" fill="#222">DATO (SER)</text>
<polyline points="330,440 560,440" fill="none" stroke="#d946ef" stroke-width="3" stroke-linejoin="round"/>
<circle cx="330" cy="440" r="4" fill="#d946ef"/>
<circle cx="560" cy="440" r="4" fill="#d946ef"/>
<text x="572" y="444" font-size="12" text-anchor="start" font-weight="bold" fill="#fff">D3</text>
<text x="322" y="474" font-size="10" text-anchor="end" font-weight="bold" fill="#222">RELOJ (SRCLK)</text>
<polyline points="330,470 560,470" fill="none" stroke="#14b8a6" stroke-width="3" stroke-linejoin="round"/>
<circle cx="330" cy="470" r="4" fill="#14b8a6"/>
<circle cx="560" cy="470" r="4" fill="#14b8a6"/>
<text x="572" y="474" font-size="12" text-anchor="start" font-weight="bold" fill="#fff">A3</text>
<text x="322" y="504" font-size="10" text-anchor="end" font-weight="bold" fill="#222">LATCH (RCLK)</text>
<polyline points="330,500 560,500" fill="none" stroke="#f59e0b" stroke-width="3" stroke-linejoin="round"/>
<circle cx="330" cy="500" r="4" fill="#f59e0b"/>
<circle cx="560" cy="500" r="4" fill="#f59e0b"/>
<text x="572" y="504" font-size="12" text-anchor="start" font-weight="bold" fill="#fff">D13</text>
</svg>